# xmcd
#
# Track frame offsets: 
#        150
#        21890
#        43002
#        66871
#        87882
#        109678
#        134110
#        145352
#
# Disc length: 2403 seconds
#
# Revision: 1
# Processed by: cddbd v1.5.1PL0 Copyright (c) Steve Scherf et al.
# Submitted via: ExactAudioCopy v0.95a5
#
DISCID=73096108
DTITLE=Brightblack - Ala.Cali.Tucky
DYEAR=2003
DGENRE=Country
TTITLE0=New Mexico
TTITLE1=True Bright Blossom
TTITLE2=Own Time Woodland Song
TTITLE3=Better Days
TTITLE4=Old Letters
TTITLE5=Wildshiney Stars
TTITLE6=Red
TTITLE7=Oceanblue
EXTD=Produced by Paul Oldham.  Choruses by Bonnie Prince Billy.
EXTT0=
EXTT1=
EXTT2=
EXTT3=
EXTT4=
EXTT5=
EXTT6=
EXTT7=
PLAYORDER=
